<svg fill="#06033F" xmlns="http://www.w3.org/2000/svg" xmlns:xlink="http://www.w3.org/1999/xlink" version="1.1" x="0px" y="0px" viewBox="0 0 50 50" style="enable-background:new 0 0 50 50;" xml:space="preserve"><style type="text/css">
	.st0{fill:none;stroke:#06033F;stroke-width:2;stroke-miterlimit:10;}
	.st1{fill:none;stroke:#06033F;stroke-width:2;stroke-linejoin:round;stroke-miterlimit:10;}
	.st2{fill:none;stroke:#06033F;stroke-width:2;stroke-miterlimit:10;stroke-dasharray:2,2;}
	.st3{fill:none;stroke:#06033F;stroke-width:2;stroke-linecap:round;stroke-linejoin:round;stroke-miterlimit:10;}
	.st4{fill:none;stroke:#06033F;stroke-width:2;stroke-linecap:round;stroke-miterlimit:10;}
	.st5{fill:none;stroke:#06033F;stroke-width:2;stroke-linejoin:bevel;stroke-miterlimit:10;}
	.st6{fill:none;stroke:#06033F;stroke-width:2;stroke-linejoin:round;stroke-miterlimit:10;stroke-dasharray:2,2;}
	.st7{fill:none;stroke:#06033F;stroke-width:2;stroke-miterlimit:10;stroke-dasharray:2,3;}
</style><g><polygon class="st0" points="48,48 41,48 41,19.5 44.5,15.3 48,19.5  "></polygon><line class="st0" x1="41" y1="40" x2="48" y2="40"></line><line class="st0" x1="41" y1="23" x2="48" y2="23"></line><rect x="2" y="2" class="st0" width="34" height="46"></rect><line class="st0" x1="36" y1="8" x2="2" y2="8"></line><line class="st0" x1="36" y1="40" x2="2" y2="40"></line><line class="st0" x1="14" y1="44" x2="24" y2="44"></line><g><line class="st0" x1="14" y1="5" x2="20" y2="5"></line><line class="st0" x1="22" y1="5" x2="24" y2="5"></line></g><rect x="6" y="13" class="st0" width="6" height="5"></rect><rect x="16" y="13" class="st0" width="6" height="5"></rect><rect x="26" y="13" class="st0" width="6" height="5"></rect><rect x="6" y="22" class="st0" width="6" height="5"></rect><rect x="16" y="22" class="st0" width="6" height="5"></rect></g></svg>