<svg fill="#06033F" xmlns="http://www.w3.org/2000/svg" xmlns:xlink="http://www.w3.org/1999/xlink" version="1.1" x="0px" y="0px" viewBox="0 0 50 50" style="enable-background:new 0 0 50 50;" xml:space="preserve"><style type="text/css">
	.st0{fill:none;stroke:#06033F;stroke-width:2;stroke-linejoin:round;stroke-miterlimit:10;}
	.st1{fill:none;stroke:#06033F;stroke-width:2;stroke-miterlimit:10;}
	.st2{fill:none;stroke:#06033F;stroke-width:2;stroke-linecap:round;stroke-miterlimit:10;}
	.st3{fill:none;stroke:#06033F;stroke-width:2;stroke-miterlimit:10;stroke-dasharray:2.0674,3.1011;}
	.st4{fill:none;stroke:#06033F;stroke-width:2;stroke-miterlimit:10;stroke-dasharray:2,2;}
	.st5{fill:none;stroke:#06033F;stroke-width:2;stroke-linejoin:round;stroke-miterlimit:10;stroke-dasharray:2,2;}
</style><g><circle class="st1" cx="25" cy="20.6" r="11"></circle><path class="st1" d="M18,20.6c0-3.9,3.1-7,7-7"></path><path class="st1" d="M20,35.5h10v8c0,2.8-2.2,5-5,5h0c-2.8,0-5-2.2-5-5V35.5z"></path><line class="st1" x1="27" y1="35.5" x2="27" y2="31.4"></line><line class="st1" x1="23" y1="35.5" x2="23" y2="31.4"></line><line class="st5" x1="25" y1="38.5" x2="25" y2="44.5"></line><line class="st1" x1="19.6" y1="7.6" x2="18.5" y2="4.8"></line><line class="st1" x1="12.1" y1="15.1" x2="9.3" y2="14"></line><line class="st1" x1="12.1" y1="25.9" x2="9.3" y2="27"></line><line class="st1" x1="37.9" y1="25.9" x2="40.7" y2="27"></line><line class="st1" x1="37.9" y1="15.1" x2="40.7" y2="14"></line><line class="st1" x1="30.4" y1="7.6" x2="31.5" y2="4.8"></line><g><line class="st1" x1="25" y1="6.5" x2="25" y2="1.5"></line><line class="st1" x1="15.1" y1="10.6" x2="11.6" y2="7.1"></line><line class="st1" x1="11" y1="20.5" x2="6" y2="20.5"></line><line class="st1" x1="15.1" y1="30.4" x2="11.6" y2="33.9"></line><line class="st1" x1="34.9" y1="30.4" x2="38.4" y2="33.9"></line><line class="st1" x1="39" y1="20.5" x2="44" y2="20.5"></line><line class="st1" x1="34.9" y1="10.6" x2="38.4" y2="7.1"></line></g></g></svg>